<?xml version="1.0" encoding="UTF-8" standalone="no"?>
<!DOCTYPE svg PUBLIC "-//W3C//DTD SVG 1.1//EN"
 "http://www.w3.org/Graphics/SVG/1.1/DTD/svg11.dtd">
<!-- Generated by graphviz version 2.38.0 (20140413.2041)
 -->
<!-- Title: testkram Pages: 1 -->
<svg width="2265pt" height="653pt"
 viewBox="0.00 0.00 2264.80 653.00" xmlns="http://www.w3.org/2000/svg" xmlns:xlink="http://www.w3.org/1999/xlink">
<g id="graph0" class="graph" transform="scale(1 1) rotate(0) translate(4 649)">
<title>testkram</title>
<polygon fill="white" stroke="none" points="-4,4 -4,-649 2260.8,-649 2260.8,4 -4,4"/>
<!-- a1 -->
<g id="node1" class="node"><title>a1</title>
<ellipse fill="none" stroke="black" cx="1273.8" cy="-627" rx="27" ry="18"/>
<text text-anchor="middle" x="1273.8" y="-623.3" font-family="Times,serif" font-size="14.00">a1</text>
</g>
<!-- a2 -->
<g id="node2" class="node"><title>a2</title>
<ellipse fill="none" stroke="black" cx="1128.8" cy="-540" rx="27" ry="18"/>
<text text-anchor="middle" x="1128.8" y="-536.3" font-family="Times,serif" font-size="14.00">a2</text>
</g>
<!-- a1&#45;&gt;a2 -->
<g id="edge1" class="edge"><title>a1&#45;&gt;a2</title>
<path fill="none" stroke="black" d="M1254.57,-614.104C1243.73,-607.374 1229.98,-598.774 1217.8,-591 1207.52,-584.432 1205.31,-582.198 1194.8,-576 1183.28,-569.207 1170.33,-562.207 1158.97,-556.269"/>
<polygon fill="black" stroke="black" points="1160.37,-553.048 1149.88,-551.56 1157.15,-559.265 1160.37,-553.048"/>
<text text-anchor="middle" x="1267.8" y="-579.8" font-family="Times,serif" font-size="14.00">cost=59 &#160;done=0 &#160;</text>
</g>
<!-- a3 -->
<g id="node3" class="node"><title>a3</title>
<ellipse fill="none" stroke="black" cx="1137.8" cy="-18" rx="27" ry="18"/>
<text text-anchor="middle" x="1137.8" y="-14.3" font-family="Times,serif" font-size="14.00">a3</text>
</g>
<!-- a1&#45;&gt;a3 -->
<g id="edge2" class="edge"><title>a1&#45;&gt;a3</title>
<path fill="none" stroke="black" d="M1300.85,-625.875C1436.24,-624.903 2033.8,-616.345 2033.8,-541 2033.8,-541 2033.8,-541 2033.8,-104 2033.8,-16.3272 1345.13,-17.0488 1175.31,-18.5595"/>
<polygon fill="black" stroke="black" points="1175.07,-15.0614 1165.11,-18.6569 1175.14,-22.0611 1175.07,-15.0614"/>
<text text-anchor="middle" x="2083.8" y="-318.8" font-family="Times,serif" font-size="14.00">cost=67 &#160;done=0 &#160;</text>
</g>
<!-- a4 -->
<g id="node4" class="node"><title>a4</title>
<ellipse fill="none" stroke="black" cx="933.802" cy="-105" rx="27" ry="18"/>
<text text-anchor="middle" x="933.802" y="-101.3" font-family="Times,serif" font-size="14.00">a4</text>
</g>
<!-- a1&#45;&gt;a4 -->
<g id="edge3" class="edge"><title>a1&#45;&gt;a4</title>
<path fill="none" stroke="black" d="M1301.06,-625.209C1421.35,-621.366 1898.8,-602.255 1898.8,-541 1898.8,-541 1898.8,-541 1898.8,-321.5 1898.8,-293.901 1904.35,-280.487 1884.8,-261 1719.38,-96.0616 1598.95,-201.361 1369.8,-156 1344.1,-150.913 1338.6,-145.553 1312.8,-141 1188.65,-119.086 1039.04,-110.396 970.879,-107.39"/>
<polygon fill="black" stroke="black" points="970.795,-103.884 960.655,-106.956 970.497,-110.877 970.795,-103.884"/>
<text text-anchor="middle" x="1952.3" y="-362.3" font-family="Times,serif" font-size="14.00">cost=150 &#160;done=0 &#160;</text>
</g>
<!-- a5 -->
<g id="node5" class="node"><title>a5</title>
<ellipse fill="none" stroke="black" cx="1142.8" cy="-192" rx="27" ry="18"/>
<text text-anchor="middle" x="1142.8" y="-188.3" font-family="Times,serif" font-size="14.00">a5</text>
</g>
<!-- a1&#45;&gt;a5 -->
<g id="edge4" class="edge"><title>a1&#45;&gt;a5</title>
<path fill="none" stroke="black" d="M1296.23,-616.814C1312.21,-610.09 1334.08,-600.514 1352.8,-591 1447.95,-542.65 1507.42,-563.419 1560.8,-471 1568.8,-457.145 1564.48,-450.572 1560.8,-435 1558.75,-426.295 1553.86,-425.705 1551.8,-417 1550.27,-410.512 1547.79,-407.322 1551.8,-402 1569.34,-378.752 1597.27,-407.248 1614.8,-384 1624.44,-371.226 1622.97,-361.758 1614.8,-348 1606.27,-333.634 1596.15,-338.557 1581.8,-330 1510.34,-287.379 1503.12,-256.125 1424.8,-228 1358.29,-204.111 1336.93,-218.8 1266.8,-210 1237.18,-206.283 1203.65,-201.66 1178.92,-198.174"/>
<polygon fill="black" stroke="black" points="1179.3,-194.692 1168.91,-196.755 1178.32,-201.623 1179.3,-194.692"/>
<text text-anchor="middle" x="1605.3" y="-405.8" font-family="Times,serif" font-size="14.00">cost=109 &#160;done=0 &#160;</text>
</g>
<!-- a6 -->
<g id="node6" class="node"><title>a6</title>
<ellipse fill="none" stroke="black" cx="1230.8" cy="-279" rx="27" ry="18"/>
<text text-anchor="middle" x="1230.8" y="-275.3" font-family="Times,serif" font-size="14.00">a6</text>
</g>
<!-- a1&#45;&gt;a6 -->
<g id="edge5" class="edge"><title>a1&#45;&gt;a6</title>
<path fill="none" stroke="black" d="M1294.47,-615.196C1303.39,-609.341 1312.88,-601.198 1317.8,-591 1320.7,-584.995 1318.21,-582.654 1317.8,-576 1314.91,-529.066 1307.7,-517.934 1304.8,-471 1303.82,-455.03 1299.88,-450.224 1304.8,-435 1307.84,-425.61 1314.77,-426.39 1317.8,-417 1319.85,-410.657 1319.68,-408.396 1317.8,-402 1305.99,-361.814 1274.62,-323.916 1252.97,-301.326"/>
<polygon fill="black" stroke="black" points="1255.27,-298.673 1245.76,-293.995 1250.27,-303.58 1255.27,-298.673"/>
<text text-anchor="middle" x="1358.3" y="-449.3" font-family="Times,serif" font-size="14.00">cost=148 &#160;done=0 &#160;</text>
</g>
<!-- a7 -->
<g id="node7" class="node"><title>a7</title>
<ellipse fill="none" stroke="black" cx="589.802" cy="-366" rx="27" ry="18"/>
<text text-anchor="middle" x="589.802" y="-362.3" font-family="Times,serif" font-size="14.00">a7</text>
</g>
<!-- a1&#45;&gt;a7 -->
<g id="edge6" class="edge"><title>a1&#45;&gt;a7</title>
<path fill="none" stroke="black" d="M1246.42,-625.929C1103.26,-625.428 444.139,-621.47 358.802,-591 298.445,-569.449 272.345,-561.383 243.802,-504 183.777,-383.323 451.354,-368.349 552.461,-366.94"/>
<polygon fill="black" stroke="black" points="552.584,-370.439 562.548,-366.838 552.513,-363.44 552.584,-370.439"/>
<text text-anchor="middle" x="297.302" y="-492.8" font-family="Times,serif" font-size="14.00">cost=145 &#160;done=0 &#160;</text>
</g>
<!-- a8 -->
<g id="node8" class="node"><title>a8</title>
<ellipse fill="none" stroke="black" cx="544.802" cy="-453" rx="27" ry="18"/>
<text text-anchor="middle" x="544.802" y="-449.3" font-family="Times,serif" font-size="14.00">a8</text>
</g>
<!-- a1&#45;&gt;a8 -->
<g id="edge7" class="edge"><title>a1&#45;&gt;a8</title>
<path fill="none" stroke="black" d="M1246.62,-625.896C1115.64,-625.099 554.134,-618.17 508.802,-558 490.349,-533.507 496.867,-517.249 508.802,-489 511.193,-483.342 514.995,-478.146 519.251,-473.588"/>
<polygon fill="black" stroke="black" points="521.825,-475.97 526.672,-466.548 517.008,-470.891 521.825,-475.97"/>
<text text-anchor="middle" x="562.302" y="-536.3" font-family="Times,serif" font-size="14.00">cost=191 &#160;done=0 &#160;</text>
</g>
<!-- a2&#45;&gt;a1 -->
<g id="edge8" class="edge"><title>a2&#45;&gt;a1</title>
<path fill="none" stroke="black" d="M1109.57,-552.931C1095.42,-563.196 1080.31,-578.312 1090.8,-591 1108.95,-612.947 1188.71,-621.261 1236.74,-624.313"/>
<polygon fill="black" stroke="black" points="1236.57,-627.81 1246.76,-624.904 1236.98,-620.822 1236.57,-627.81"/>
<text text-anchor="middle" x="1140.8" y="-579.8" font-family="Times,serif" font-size="14.00">cost=59 &#160;done=0 &#160;</text>
</g>
<!-- a2&#45;&gt;a3 -->
<g id="edge9" class="edge"><title>a2&#45;&gt;a3</title>
<path fill="none" stroke="black" d="M1155.83,-538.438C1261.92,-535.877 1649.41,-523.071 1758.8,-471 1832.31,-436.009 1888.7,-389.015 1854.8,-315 1832.56,-266.438 1763.8,-289.913 1763.8,-236.5 1763.8,-236.5 1763.8,-236.5 1763.8,-104 1763.8,-44.1999 1309.46,-24.5991 1174.91,-20.1056"/>
<polygon fill="black" stroke="black" points="1174.81,-16.6005 1164.7,-19.7733 1174.58,-23.5968 1174.81,-16.6005"/>
<text text-anchor="middle" x="1894.3" y="-275.3" font-family="Times,serif" font-size="14.00">cost=134 &#160;done=0 &#160;</text>
</g>
<!-- a2&#45;&gt;a4 -->
<g id="edge10" class="edge"><title>a2&#45;&gt;a4</title>
<path fill="none" stroke="black" d="M1155.83,-538.432C1242.2,-536.388 1510.73,-528.199 1593.8,-504 1607.36,-500.051 1608.94,-494.825 1621.8,-489 1704.82,-451.399 1761.89,-491.907 1813.8,-417 1817.6,-411.52 1816.26,-408.196 1813.8,-402 1803.71,-376.588 1663.95,-240.821 1639.8,-228 1509.51,-158.828 1454.1,-207.307 1315.8,-156 1302.57,-151.09 1301.31,-145.107 1287.8,-141 1229.32,-123.219 1049.64,-112.01 971.145,-107.84"/>
<polygon fill="black" stroke="black" points="970.932,-104.325 960.764,-107.299 970.568,-111.315 970.932,-104.325"/>
<text text-anchor="middle" x="1800.8" y="-318.8" font-family="Times,serif" font-size="14.00">cost=90 &#160;done=0 &#160;</text>
</g>
<!-- a2&#45;&gt;a5 -->
<g id="edge11" class="edge"><title>a2&#45;&gt;a5</title>
<path fill="none" stroke="black" d="M1155.8,-538.916C1239.86,-538.026 1494.33,-530.389 1544.8,-471 1555.16,-458.808 1549.72,-450.224 1544.8,-435 1541.77,-425.61 1537.43,-425.107 1531.8,-417 1473.38,-332.829 1487.59,-280.831 1399.8,-228 1348.69,-197.242 1325.91,-218.051 1266.8,-210 1237.22,-205.971 1203.68,-201.371 1178.95,-197.973"/>
<polygon fill="black" stroke="black" points="1179.31,-194.489 1168.93,-196.595 1178.36,-201.424 1179.31,-194.489"/>
<text text-anchor="middle" x="1560.8" y="-362.3" font-family="Times,serif" font-size="14.00">cost=30 &#160;done=0 &#160;</text>
</g>
<!-- a2&#45;&gt;a6 -->
<g id="edge12" class="edge"><title>a2&#45;&gt;a6</title>
<path fill="none" stroke="black" d="M1114.99,-524.018C1091.5,-496.72 1049.24,-438.347 1080.8,-402 1118.18,-358.953 1163.42,-419.778 1207.8,-384 1230.13,-366.006 1233.84,-331.657 1233.31,-307.365"/>
<polygon fill="black" stroke="black" points="1236.8,-307.152 1232.83,-297.328 1229.81,-307.481 1236.8,-307.152"/>
<text text-anchor="middle" x="1134.3" y="-405.8" font-family="Times,serif" font-size="14.00">cost=101 &#160;done=0 &#160;</text>
</g>
<!-- a2&#45;&gt;a7 -->
<g id="edge13" class="edge"><title>a2&#45;&gt;a7</title>
<path fill="none" stroke="black" d="M1104.92,-531.31C1072.29,-520.305 1012.51,-498.342 965.802,-471 943.398,-457.884 942.488,-447.622 919.802,-435 823.688,-381.522 690.734,-369.918 626.91,-367.526"/>
<polygon fill="black" stroke="black" points="627.019,-364.027 616.912,-367.206 626.795,-371.024 627.019,-364.027"/>
<text text-anchor="middle" x="1015.8" y="-449.3" font-family="Times,serif" font-size="14.00">cost=25 &#160;done=0 &#160;</text>
</g>
<!-- a2&#45;&gt;a8 -->
<g id="edge14" class="edge"><title>a2&#45;&gt;a8</title>
<path fill="none" stroke="black" d="M1101.62,-538.511C1019.7,-536.764 776.307,-529.507 701.802,-504 690.256,-500.047 689.962,-493.939 678.802,-489 647.023,-474.934 608.414,-465.595 580.818,-460.128"/>
<polygon fill="black" stroke="black" points="581.296,-456.656 570.817,-458.221 579.985,-463.532 581.296,-456.656"/>
<text text-anchor="middle" x="751.802" y="-492.8" font-family="Times,serif" font-size="14.00">cost=47 &#160;done=0 &#160;</text>
</g>
<!-- a3&#45;&gt;a1 -->
<g id="edge15" class="edge"><title>a3&#45;&gt;a1</title>
<path fill="none" stroke="black" d="M1165.02,-19.2971C1290.62,-20.7965 1814.97,-28.4947 1976.8,-54 2058.82,-66.9263 2156.8,-20.9709 2156.8,-104 2156.8,-541 2156.8,-541 2156.8,-541 2156.8,-627.318 1479.6,-627.64 1311.31,-626.387"/>
<polygon fill="black" stroke="black" points="1311.22,-622.886 1301.2,-626.305 1311.17,-629.886 1311.22,-622.886"/>
<text text-anchor="middle" x="2206.8" y="-318.8" font-family="Times,serif" font-size="14.00">cost=67 &#160;done=0 &#160;</text>
</g>
<!-- a3&#45;&gt;a2 -->
<g id="edge16" class="edge"><title>a3&#45;&gt;a2</title>
<path fill="none" stroke="black" d="M1110.71,-19.0538C974.257,-19.4665 361.344,-23.0416 173.802,-54 97.3592,-66.6188 6.80216,-26.5225 6.80216,-104 6.80216,-236.5 6.80216,-236.5 6.80216,-236.5 6.80216,-263.389 -7.70912,-274.363 6.80216,-297 36.1019,-342.706 73.8322,-316.154 117.802,-348 151.678,-372.535 145.541,-396.151 181.802,-417 308.555,-489.879 360.823,-454.078 502.802,-489 527.823,-495.154 533.347,-500.006 558.802,-504 718.381,-529.038 760.62,-511.388 921.802,-522 981.381,-525.923 1050.49,-531.883 1091.87,-535.604"/>
<polygon fill="black" stroke="black" points="1091.75,-539.107 1102.03,-536.522 1092.38,-532.136 1091.75,-539.107"/>
<text text-anchor="middle" x="60.3022" y="-275.3" font-family="Times,serif" font-size="14.00">cost=134 &#160;done=0 &#160;</text>
</g>
<!-- a3&#45;&gt;a4 -->
<g id="edge17" class="edge"><title>a3&#45;&gt;a4</title>
<path fill="none" stroke="black" d="M1118.38,-30.8375C1099.92,-41.7458 1071.15,-57.8803 1044.8,-69 1019.78,-79.5609 990.433,-88.6806 968.201,-94.961"/>
<polygon fill="black" stroke="black" points="967.23,-91.5981 958.528,-97.6418 969.099,-98.3438 967.23,-91.5981"/>
<text text-anchor="middle" x="1125.8" y="-57.8" font-family="Times,serif" font-size="14.00">cost=30 &#160;done=0 &#160;</text>
</g>
<!-- a3&#45;&gt;a5 -->
<g id="edge18" class="edge"><title>a3&#45;&gt;a5</title>
<path fill="none" stroke="black" d="M1157.54,-30.5452C1165.83,-36.4655 1174.71,-44.4506 1179.8,-54 1198.08,-88.3068 1186.8,-102.179 1188.8,-141 1189.15,-147.658 1191.76,-150.027 1188.8,-156 1185.1,-163.46 1178.97,-169.76 1172.37,-174.87"/>
<polygon fill="black" stroke="black" points="1170.16,-172.146 1163.91,-180.702 1174.13,-177.91 1170.16,-172.146"/>
<text text-anchor="middle" x="1243.3" y="-101.3" font-family="Times,serif" font-size="14.00">cost=169 &#160;done=0 &#160;</text>
</g>
<!-- a3&#45;&gt;a6 -->
<g id="edge19" class="edge"><title>a3&#45;&gt;a6</title>
<path fill="none" stroke="black" d="M1164.36,-21.334C1228.07,-27.5405 1386.59,-46.7953 1417.8,-87 1427.61,-99.6381 1425.88,-109.189 1417.8,-123 1409.56,-137.086 1397.01,-129.14 1385.8,-141 1351.13,-177.696 1373.81,-209.771 1335.8,-243 1316.69,-259.704 1289.35,-268.489 1267.36,-273.079"/>
<polygon fill="black" stroke="black" points="1266.55,-269.67 1257.37,-274.959 1267.84,-276.549 1266.55,-269.67"/>
<text text-anchor="middle" x="1439.3" y="-144.8" font-family="Times,serif" font-size="14.00">cost=104 &#160;done=0 &#160;</text>
</g>
<!-- a3&#45;&gt;a7 -->
<g id="edge20" class="edge"><title>a3&#45;&gt;a7</title>
<path fill="none" stroke="black" d="M1111.07,-21.8098C1006.43,-33.4213 627.077,-81.457 559.802,-174 523.503,-223.933 554.843,-300.7 575.371,-339.973"/>
<polygon fill="black" stroke="black" points="572.476,-341.978 580.309,-349.111 578.634,-338.649 572.476,-341.978"/>
<text text-anchor="middle" x="613.302" y="-188.3" font-family="Times,serif" font-size="14.00">cost=109 &#160;done=0 &#160;</text>
</g>
<!-- a3&#45;&gt;a8 -->
<g id="edge21" class="edge"><title>a3&#45;&gt;a8</title>
<path fill="none" stroke="black" d="M1110.7,-19.3783C961.478,-21.5411 245.284,-32.9881 203.802,-54 115.751,-98.6012 98.2769,-134.793 65.8022,-228 63.6087,-234.295 61.9352,-237.569 65.8022,-243 79.9879,-262.922 99.0984,-245.243 117.802,-261 178.35,-312.01 137.053,-374.425 203.802,-417 253.005,-448.384 408.016,-426.84 465.802,-435 480.414,-437.063 496.356,-440.301 510.068,-443.4"/>
<polygon fill="black" stroke="black" points="509.527,-446.867 520.06,-445.721 511.111,-440.049 509.527,-446.867"/>
<text text-anchor="middle" x="115.802" y="-231.8" font-family="Times,serif" font-size="14.00">cost=93 &#160;done=0 &#160;</text>
</g>
<!-- a4&#45;&gt;a1 -->
<g id="edge22" class="edge"><title>a4&#45;&gt;a1</title>
<path fill="none" stroke="black" d="M906.866,-106.498C811.743,-108.449 491.99,-116.702 392.802,-141 299.837,-163.773 275.381,-174.818 195.802,-228 189.766,-232.034 6.80216,-401.24 6.80216,-408.5 6.80216,-541 6.80216,-541 6.80216,-541 6.80216,-604.315 1027.34,-622.447 1236.58,-625.499"/>
<polygon fill="black" stroke="black" points="1236.7,-629.001 1246.75,-625.645 1236.8,-622.002 1236.7,-629.001"/>
<text text-anchor="middle" x="120.302" y="-362.3" font-family="Times,serif" font-size="14.00">cost=150 &#160;done=0 &#160;</text>
</g>
<!-- a4&#45;&gt;a2 -->
<g id="edge23" class="edge"><title>a4&#45;&gt;a2</title>
<path fill="none" stroke="black" d="M960.66,-107.59C1008.13,-110.849 1109.7,-119.844 1192.8,-141 1276.23,-162.238 1290.6,-187.89 1373.8,-210 1423.8,-223.286 1439.31,-212.95 1488.8,-228 1522.09,-238.123 1531.01,-241.462 1559.8,-261 1596.74,-286.066 1596.4,-304.148 1632.8,-330 1689.52,-370.288 1735.65,-342.557 1771.8,-402 1792.86,-436.624 1725.56,-423.175 1686.8,-435 1608.41,-458.914 1595.47,-484.769 1515.8,-504 1390.11,-534.34 1235.71,-538.868 1166.03,-539.228"/>
<polygon fill="black" stroke="black" points="1165.98,-535.728 1155.99,-539.254 1166,-542.728 1165.98,-535.728"/>
<text text-anchor="middle" x="1682.8" y="-318.8" font-family="Times,serif" font-size="14.00">cost=90 &#160;done=0 &#160;</text>
</g>
<!-- a4&#45;&gt;a3 -->
<g id="edge24" class="edge"><title>a4&#45;&gt;a3</title>
<path fill="none" stroke="black" d="M931.521,-86.9982C931.071,-76.1575 932.529,-62.5826 940.802,-54 962.296,-31.7018 1049.43,-23.4858 1100.33,-20.5529"/>
<polygon fill="black" stroke="black" points="1100.8,-24.0325 1110.6,-20.004 1100.43,-17.0425 1100.8,-24.0325"/>
<text text-anchor="middle" x="990.802" y="-57.8" font-family="Times,serif" font-size="14.00">cost=30 &#160;done=0 &#160;</text>
</g>
<!-- a4&#45;&gt;a5 -->
<g id="edge25" class="edge"><title>a4&#45;&gt;a5</title>
<path fill="none" stroke="black" d="M935.651,-123.311C937.75,-134.282 942.232,-147.886 951.802,-156 957.678,-160.982 1052.56,-176.697 1106.34,-185.275"/>
<polygon fill="black" stroke="black" points="1106.08,-188.778 1116.5,-186.891 1107.18,-181.865 1106.08,-188.778"/>
<text text-anchor="middle" x="1005.3" y="-144.8" font-family="Times,serif" font-size="14.00">cost=160 &#160;done=0 &#160;</text>
</g>
<!-- a4&#45;&gt;a6 -->
<g id="edge26" class="edge"><title>a4&#45;&gt;a6</title>
<path fill="none" stroke="black" d="M908.975,-112.281C860.05,-125.889 758.757,-160.873 792.802,-210 805.78,-228.727 820.048,-218.6 840.802,-228 853.662,-233.825 855.291,-238.908 868.802,-243 928.876,-261.195 1113.99,-272.239 1193.68,-276.265"/>
<polygon fill="black" stroke="black" points="1193.6,-279.765 1203.76,-276.765 1193.95,-272.774 1193.6,-279.765"/>
<text text-anchor="middle" x="846.302" y="-188.3" font-family="Times,serif" font-size="14.00">cost=128 &#160;done=0 &#160;</text>
</g>
<!-- a4&#45;&gt;a7 -->
<g id="edge27" class="edge"><title>a4&#45;&gt;a7</title>
<path fill="none" stroke="black" d="M906.758,-107.781C856.2,-111.533 749.68,-121.547 718.802,-141 687.195,-160.913 701.363,-188.516 670.802,-210 645.578,-227.732 624.196,-204.874 603.802,-228 577.35,-257.996 579.489,-307.286 584.15,-337.848"/>
<polygon fill="black" stroke="black" points="580.719,-338.552 585.86,-347.815 587.618,-337.367 580.719,-338.552"/>
<text text-anchor="middle" x="657.302" y="-231.8" font-family="Times,serif" font-size="14.00">cost=127 &#160;done=0 &#160;</text>
</g>
<!-- a4&#45;&gt;a8 -->
<g id="edge28" class="edge"><title>a4&#45;&gt;a8</title>
<path fill="none" stroke="black" d="M906.521,-105.988C804.739,-106.424 448.329,-112.405 356.802,-174 327.757,-193.546 344.643,-219.379 318.802,-243 304.113,-256.427 288.684,-244.338 277.802,-261 231.272,-332.245 315.063,-374.533 388.802,-417 391.445,-418.522 464.03,-434.46 509.246,-444.296"/>
<polygon fill="black" stroke="black" points="508.753,-447.771 519.268,-446.474 510.239,-440.93 508.753,-447.771"/>
<text text-anchor="middle" x="327.802" y="-275.3" font-family="Times,serif" font-size="14.00">cost=73 &#160;done=0 &#160;</text>
</g>
<!-- a5&#45;&gt;a1 -->
<g id="edge29" class="edge"><title>a5&#45;&gt;a1</title>
<path fill="none" stroke="black" d="M1168.89,-196.895C1193.95,-200.563 1232.92,-206.065 1266.8,-210 1350.62,-219.733 1374.49,-205.45 1455.8,-228 1488.56,-237.084 1496.08,-242.817 1524.8,-261 1525.21,-261.256 1631.5,-347.626 1631.8,-348 1648.59,-368.934 1652.64,-375.885 1658.8,-402 1696.08,-559.895 1413.69,-609.435 1310.54,-622.174"/>
<polygon fill="black" stroke="black" points="1310.09,-618.703 1300.57,-623.359 1310.91,-625.654 1310.09,-618.703"/>
<text text-anchor="middle" x="1714.3" y="-405.8" font-family="Times,serif" font-size="14.00">cost=109 &#160;done=0 &#160;</text>
</g>
<!-- a5&#45;&gt;a2 -->
<g id="edge30" class="edge"><title>a5&#45;&gt;a2</title>
<path fill="none" stroke="black" d="M1169.07,-196.945C1220.49,-204.779 1329.98,-222.057 1335.8,-228 1349.24,-241.705 1355.45,-294.035 1349.8,-330 1343.5,-370.129 1350.29,-388.048 1321.8,-417 1304.35,-434.731 1290.83,-423.443 1268.8,-435 1224.09,-458.456 1178.23,-495.48 1151.68,-518.445"/>
<polygon fill="black" stroke="black" points="1149.31,-515.871 1144.09,-525.09 1153.92,-521.139 1149.31,-515.871"/>
<text text-anchor="middle" x="1396.8" y="-362.3" font-family="Times,serif" font-size="14.00">cost=30 &#160;done=0 &#160;</text>
</g>
<!-- a5&#45;&gt;a3 -->
<g id="edge31" class="edge"><title>a5&#45;&gt;a3</title>
<path fill="none" stroke="black" d="M1168.61,-185.827C1222.05,-173.896 1336.95,-141.246 1300.8,-87 1272.9,-45.1342 1213.81,-29.0008 1174.97,-22.8124"/>
<polygon fill="black" stroke="black" points="1174.99,-19.2794 1164.59,-21.3176 1173.99,-26.2079 1174.99,-19.2794"/>
<text text-anchor="middle" x="1360.3" y="-101.3" font-family="Times,serif" font-size="14.00">cost=169 &#160;done=0 &#160;</text>
</g>
<!-- a5&#45;&gt;a4 -->
<g id="edge32" class="edge"><title>a5&#45;&gt;a4</title>
<path fill="none" stroke="black" d="M1122.58,-179.778C1110.62,-173.048 1095.23,-164.225 1081.8,-156 1071.39,-149.627 1069.92,-146.037 1058.8,-141 1029.94,-127.92 995.065,-118.649 969.496,-112.949"/>
<polygon fill="black" stroke="black" points="970.01,-109.479 959.497,-110.796 968.536,-116.323 970.01,-109.479"/>
<text text-anchor="middle" x="1135.3" y="-144.8" font-family="Times,serif" font-size="14.00">cost=160 &#160;done=0 &#160;</text>
</g>
<!-- a5&#45;&gt;a6 -->
<g id="edge33" class="edge"><title>a5&#45;&gt;a6</title>
<path fill="none" stroke="black" d="M1167.77,-199.012C1183.93,-204.144 1204.24,-213.121 1216.8,-228 1222.2,-234.394 1225.52,-242.723 1227.57,-250.745"/>
<polygon fill="black" stroke="black" points="1224.14,-251.452 1229.53,-260.572 1231,-250.08 1224.14,-251.452"/>
<text text-anchor="middle" x="1278.3" y="-231.8" font-family="Times,serif" font-size="14.00">cost=126 &#160;done=0 &#160;</text>
</g>
<!-- a5&#45;&gt;a7 -->
<g id="edge34" class="edge"><title>a5&#45;&gt;a7</title>
<path fill="none" stroke="black" d="M1123.35,-204.882C1119.32,-206.894 1115.02,-208.737 1110.8,-210 1028.7,-234.583 1003.6,-215.579 918.802,-228 885.168,-232.926 877.345,-237.481 843.802,-243 782.335,-253.114 761.715,-235.673 704.802,-261 683.334,-270.554 637.662,-315.446 610.783,-343.034"/>
<polygon fill="black" stroke="black" points="608.178,-340.693 603.736,-350.312 613.207,-345.562 608.178,-340.693"/>
<text text-anchor="middle" x="754.802" y="-275.3" font-family="Times,serif" font-size="14.00">cost=54 &#160;done=0 &#160;</text>
</g>
<!-- a5&#45;&gt;a8 -->
<g id="edge35" class="edge"><title>a5&#45;&gt;a8</title>
<path fill="none" stroke="black" d="M1123.45,-204.807C1114.73,-210.882 1104.83,-218.92 1097.8,-228 1067.59,-267.048 1093.59,-300.769 1053.8,-330 1022.65,-352.884 918.401,-339.04 880.802,-348 797.056,-367.957 782.221,-392.123 699.802,-417 659.583,-429.14 612.365,-439.222 580.707,-445.398"/>
<polygon fill="black" stroke="black" points="579.76,-442.016 570.6,-447.341 581.081,-448.89 579.76,-442.016"/>
<text text-anchor="middle" x="1121.3" y="-318.8" font-family="Times,serif" font-size="14.00">cost=115 &#160;done=0 &#160;</text>
</g>
<!-- a6&#45;&gt;a1 -->
<g id="edge36" class="edge"><title>a6&#45;&gt;a1</title>
<path fill="none" stroke="black" d="M1250.84,-291.398C1261.37,-297.775 1274.25,-306.198 1284.8,-315 1317.16,-341.985 1319.03,-355.227 1349.8,-384 1375.87,-408.368 1396.57,-402.737 1411.8,-435 1445.08,-505.456 1388.13,-537.158 1331.8,-591 1323.68,-598.76 1313.55,-605.6 1304.04,-611.127"/>
<polygon fill="black" stroke="black" points="1302.26,-608.114 1295.2,-616.011 1305.64,-614.242 1302.26,-608.114"/>
<text text-anchor="middle" x="1474.3" y="-449.3" font-family="Times,serif" font-size="14.00">cost=148 &#160;done=0 &#160;</text>
</g>
<!-- a6&#45;&gt;a2 -->
<g id="edge37" class="edge"><title>a6&#45;&gt;a2</title>
<path fill="none" stroke="black" d="M1239.97,-296.229C1242.74,-301.974 1245.41,-308.602 1246.8,-315 1253.48,-345.664 1248.65,-357.521 1231.8,-384 1225.2,-394.372 1218.73,-392.604 1210.8,-402 1180.93,-437.407 1155.12,-484.965 1140.79,-513.724"/>
<polygon fill="black" stroke="black" points="1137.65,-512.192 1136.39,-522.712 1143.93,-515.274 1137.65,-512.192"/>
<text text-anchor="middle" x="1264.3" y="-405.8" font-family="Times,serif" font-size="14.00">cost=101 &#160;done=0 &#160;</text>
</g>
<!-- a6&#45;&gt;a3 -->
<g id="edge38" class="edge"><title>a6&#45;&gt;a3</title>
<path fill="none" stroke="black" d="M1257.57,-275.867C1332.44,-268.639 1535.77,-239.717 1492.8,-141 1468.61,-85.4317 1444.18,-76.2329 1387.8,-54 1316.24,-25.7811 1225.29,-19.8043 1175.18,-18.8355"/>
<polygon fill="black" stroke="black" points="1175.17,-15.3352 1165.12,-18.6986 1175.08,-22.3345 1175.17,-15.3352"/>
<text text-anchor="middle" x="1550.3" y="-144.8" font-family="Times,serif" font-size="14.00">cost=104 &#160;done=0 &#160;</text>
</g>
<!-- a6&#45;&gt;a4 -->
<g id="edge39" class="edge"><title>a6&#45;&gt;a4</title>
<path fill="none" stroke="black" d="M1204.64,-274.375C1160.11,-267.346 1067.8,-248.994 999.802,-210 968.103,-191.822 954.255,-188.628 937.802,-156 934.298,-149.05 932.753,-140.859 932.226,-133.14"/>
<polygon fill="black" stroke="black" points="935.725,-133.005 932.051,-123.068 928.726,-133.127 935.725,-133.005"/>
<text text-anchor="middle" x="1053.3" y="-188.3" font-family="Times,serif" font-size="14.00">cost=128 &#160;done=0 &#160;</text>
</g>
<!-- a6&#45;&gt;a5 -->
<g id="edge40" class="edge"><title>a6&#45;&gt;a5</title>
<path fill="none" stroke="black" d="M1204.47,-274.38C1171.45,-269.237 1117.68,-258.666 1105.8,-243 1097.93,-232.615 1105.7,-220.907 1116.12,-211.433"/>
<polygon fill="black" stroke="black" points="1118.48,-214.028 1123.99,-204.98 1114.04,-208.615 1118.48,-214.028"/>
<text text-anchor="middle" x="1159.3" y="-231.8" font-family="Times,serif" font-size="14.00">cost=126 &#160;done=0 &#160;</text>
</g>
<!-- a6&#45;&gt;a7 -->
<g id="edge41" class="edge"><title>a6&#45;&gt;a7</title>
<path fill="none" stroke="black" d="M1203.63,-279.335C1151.95,-278.93 1036.63,-282.185 946.802,-315 935.339,-319.188 935.303,-325.917 923.802,-330 869.929,-349.127 702.598,-359.489 627.248,-363.29"/>
<polygon fill="black" stroke="black" points="626.639,-359.816 616.823,-363.803 626.983,-366.807 626.639,-359.816"/>
<text text-anchor="middle" x="1000.3" y="-318.8" font-family="Times,serif" font-size="14.00">cost=124 &#160;done=0 &#160;</text>
</g>
<!-- a6&#45;&gt;a8 -->
<g id="edge42" class="edge"><title>a6&#45;&gt;a8</title>
<path fill="none" stroke="black" d="M1227.62,-296.885C1224.64,-307.962 1219.05,-321.855 1208.8,-330 1175.17,-356.746 1152.94,-330.256 1113.8,-348 1090.16,-358.72 1090.34,-371.119 1067.8,-384 937.807,-458.29 884.041,-422.93 734.802,-435 681.546,-439.307 619.955,-444.937 581.685,-448.512"/>
<polygon fill="black" stroke="black" points="581.165,-445.045 571.536,-449.463 581.818,-452.015 581.165,-445.045"/>
<text text-anchor="middle" x="1160.8" y="-362.3" font-family="Times,serif" font-size="14.00">cost=7 &#160;done=0 &#160;</text>
</g>
<!-- a7&#45;&gt;a1 -->
<g id="edge43" class="edge"><title>a7&#45;&gt;a1</title>
<path fill="none" stroke="black" d="M562.808,-368.394C533.405,-371.089 486.124,-378.972 452.802,-402 368.802,-460.05 367.922,-462.117 391.802,-504 429.406,-569.951 466.076,-569.219 538.802,-591 605.818,-611.07 1096.26,-622.419 1236.46,-625.277"/>
<polygon fill="black" stroke="black" points="1236.62,-628.781 1246.69,-625.483 1236.77,-621.783 1236.62,-628.781"/>
<text text-anchor="middle" x="445.302" y="-492.8" font-family="Times,serif" font-size="14.00">cost=145 &#160;done=0 &#160;</text>
</g>
<!-- a7&#45;&gt;a2 -->
<g id="edge44" class="edge"><title>a7&#45;&gt;a2</title>
<path fill="none" stroke="black" d="M612.701,-375.964C629.907,-382.811 653.991,-392.635 674.802,-402 738.425,-430.63 749.902,-448.094 815.802,-471 912.921,-504.756 1033.03,-525.224 1092.26,-533.989"/>
<polygon fill="black" stroke="black" points="1091.85,-537.467 1102.25,-535.442 1092.85,-530.539 1091.85,-537.467"/>
<text text-anchor="middle" x="865.802" y="-449.3" font-family="Times,serif" font-size="14.00">cost=25 &#160;done=0 &#160;</text>
</g>
<!-- a7&#45;&gt;a3 -->
<g id="edge45" class="edge"><title>a7&#45;&gt;a3</title>
<path fill="none" stroke="black" d="M576.249,-349.997C570.949,-343.925 564.925,-336.762 559.802,-330 537.546,-300.621 540.055,-286.869 513.802,-261 484.034,-231.667 454.793,-246.7 434.802,-210 427.149,-195.949 426.068,-187.406 434.802,-174 509.118,-59.9397 966.039,-27.7597 1100.57,-20.7016"/>
<polygon fill="black" stroke="black" points="1100.97,-24.186 1110.78,-20.1823 1100.61,-17.195 1100.97,-24.186"/>
<text text-anchor="middle" x="488.302" y="-188.3" font-family="Times,serif" font-size="14.00">cost=109 &#160;done=0 &#160;</text>
</g>
<!-- a7&#45;&gt;a4 -->
<g id="edge46" class="edge"><title>a7&#45;&gt;a4</title>
<path fill="none" stroke="black" d="M599.443,-349.153C605.496,-339.279 613.51,-326.34 620.802,-315 636.404,-290.739 633.879,-278.508 656.802,-261 676.907,-245.644 689.522,-256.68 710.802,-243 736.858,-226.25 779.297,-157.029 805.802,-141 833.908,-124.002 870.41,-115.082 897.238,-110.514"/>
<polygon fill="black" stroke="black" points="898.036,-113.931 907.368,-108.916 896.945,-107.017 898.036,-113.931"/>
<text text-anchor="middle" x="781.302" y="-231.8" font-family="Times,serif" font-size="14.00">cost=127 &#160;done=0 &#160;</text>
</g>
<!-- a7&#45;&gt;a5 -->
<g id="edge47" class="edge"><title>a7&#45;&gt;a5</title>
<path fill="none" stroke="black" d="M607.396,-352.26C626.042,-339.001 654.462,-319.544 666.802,-315 724.845,-293.628 749.312,-324.324 804.802,-297 825.102,-287.004 821.485,-272.783 840.802,-261 842.085,-260.218 942.333,-228.311 943.802,-228 1016.83,-212.532 1039.44,-231.908 1110.8,-210 1111.85,-209.677 1112.91,-209.319 1113.97,-208.931"/>
<polygon fill="black" stroke="black" points="1115.58,-212.048 1123.34,-204.835 1112.77,-205.635 1115.58,-212.048"/>
<text text-anchor="middle" x="890.802" y="-275.3" font-family="Times,serif" font-size="14.00">cost=54 &#160;done=0 &#160;</text>
</g>
<!-- a7&#45;&gt;a6 -->
<g id="edge48" class="edge"><title>a7&#45;&gt;a6</title>
<path fill="none" stroke="black" d="M616.773,-364.563C657.012,-363.005 734.39,-356.468 793.802,-330 803.63,-325.622 802.795,-318.95 812.802,-315 847.774,-301.197 1098.33,-286.888 1193.9,-281.871"/>
<polygon fill="black" stroke="black" points="1194.17,-285.362 1203.97,-281.346 1193.8,-278.371 1194.17,-285.362"/>
<text text-anchor="middle" x="866.302" y="-318.8" font-family="Times,serif" font-size="14.00">cost=124 &#160;done=0 &#160;</text>
</g>
<!-- a7&#45;&gt;a8 -->
<g id="edge49" class="edge"><title>a7&#45;&gt;a8</title>
<path fill="none" stroke="black" d="M581.152,-383.339C574.685,-395.555 565.718,-412.491 558.309,-426.486"/>
<polygon fill="black" stroke="black" points="555.064,-425.136 553.479,-435.611 561.251,-428.411 555.064,-425.136"/>
<text text-anchor="middle" x="620.802" y="-405.8" font-family="Times,serif" font-size="14.00">cost=81 &#160;done=0 &#160;</text>
</g>
<!-- a8&#45;&gt;a1 -->
<g id="edge50" class="edge"><title>a8&#45;&gt;a1</title>
<path fill="none" stroke="black" d="M544.395,-471.193C545.102,-482.114 547.935,-495.708 556.802,-504 582.22,-527.769 1095.7,-601.091 1237.7,-620.979"/>
<polygon fill="black" stroke="black" points="1237.26,-624.452 1247.64,-622.37 1238.22,-617.519 1237.26,-624.452"/>
<text text-anchor="middle" x="864.302" y="-536.3" font-family="Times,serif" font-size="14.00">cost=191 &#160;done=0 &#160;</text>
</g>
<!-- a8&#45;&gt;a2 -->
<g id="edge51" class="edge"><title>a8&#45;&gt;a2</title>
<path fill="none" stroke="black" d="M550.242,-470.956C554.858,-482.369 562.696,-496.632 574.802,-504 596.878,-517.436 970.989,-532.931 1091.63,-537.6"/>
<polygon fill="black" stroke="black" points="1091.72,-541.105 1101.84,-537.992 1091.98,-534.111 1091.72,-541.105"/>
<text text-anchor="middle" x="624.802" y="-492.8" font-family="Times,serif" font-size="14.00">cost=47 &#160;done=0 &#160;</text>
</g>
<!-- a8&#45;&gt;a3 -->
<g id="edge52" class="edge"><title>a8&#45;&gt;a3</title>
<path fill="none" stroke="black" d="M519.597,-446.293C504.11,-442.856 483.847,-438.487 465.802,-435 409.695,-424.159 217.802,-424.145 217.802,-367 217.802,-367 217.802,-367 217.802,-104 217.802,-58.8791 928.722,-27.4029 1100.69,-20.4492"/>
<polygon fill="black" stroke="black" points="1100.91,-23.943 1110.77,-20.0448 1100.63,-16.9486 1100.91,-23.943"/>
<text text-anchor="middle" x="267.802" y="-231.8" font-family="Times,serif" font-size="14.00">cost=93 &#160;done=0 &#160;</text>
</g>
<!-- a8&#45;&gt;a4 -->
<g id="edge53" class="edge"><title>a8&#45;&gt;a4</title>
<path fill="none" stroke="black" d="M518.029,-449.822C496.438,-446.493 467.353,-438.104 452.802,-417 439.854,-398.221 371.44,-383.698 477.802,-261 525.305,-206.201 571.319,-248.461 632.802,-210 669.041,-187.331 661.775,-160.522 699.802,-141 733.43,-123.737 839.65,-113.205 896.704,-108.649"/>
<polygon fill="black" stroke="black" points="897.058,-112.132 906.757,-107.868 896.516,-105.154 897.058,-112.132"/>
<text text-anchor="middle" x="527.802" y="-275.3" font-family="Times,serif" font-size="14.00">cost=73 &#160;done=0 &#160;</text>
</g>
<!-- a8&#45;&gt;a5 -->
<g id="edge54" class="edge"><title>a8&#45;&gt;a5</title>
<path fill="none" stroke="black" d="M572.003,-452.782C601.388,-452.016 647.284,-445.836 671.802,-417 701.338,-382.263 649.958,-346.627 682.802,-315 703.502,-295.068 913.117,-304.702 940.802,-297 976.339,-287.114 1067.77,-236.162 1114.46,-209.425"/>
<polygon fill="black" stroke="black" points="1116.24,-212.437 1123.17,-204.42 1112.75,-206.368 1116.24,-212.437"/>
<text text-anchor="middle" x="736.302" y="-318.8" font-family="Times,serif" font-size="14.00">cost=115 &#160;done=0 &#160;</text>
</g>
<!-- a8&#45;&gt;a6 -->
<g id="edge55" class="edge"><title>a8&#45;&gt;a6</title>
<path fill="none" stroke="black" d="M571.836,-450.695C619.6,-447.876 721.724,-439.541 804.802,-417 881.516,-396.186 892.593,-366.894 969.802,-348 1016.16,-336.656 1140.83,-350.763 1183.8,-330 1195.87,-324.169 1206.41,-313.807 1214.43,-304.022"/>
<polygon fill="black" stroke="black" points="1217.24,-306.113 1220.56,-296.051 1211.69,-301.848 1217.24,-306.113"/>
<text text-anchor="middle" x="1016.8" y="-362.3" font-family="Times,serif" font-size="14.00">cost=7 &#160;done=0 &#160;</text>
</g>
<!-- a8&#45;&gt;a7 -->
<g id="edge56" class="edge"><title>a8&#45;&gt;a7</title>
<path fill="none" stroke="black" d="M519.212,-447.176C488.376,-440.209 442.811,-425.523 460.802,-402 472.045,-387.3 519.354,-377.331 553.424,-371.904"/>
<polygon fill="black" stroke="black" points="554.159,-375.333 563.517,-370.366 553.104,-368.413 554.159,-375.333"/>
<text text-anchor="middle" x="510.802" y="-405.8" font-family="Times,serif" font-size="14.00">cost=81 &#160;done=0 &#160;</text>
</g>
</g>
</svg>
